<?xml version="1.0" encoding="utf-8"?>
<!-- Generator: Adobe Illustrator 20.0.0, SVG Export Plug-In . SVG Version: 6.00 Build 0)  -->
<svg version="1.1" id="Layer_1" xmlns="http://www.w3.org/2000/svg" xmlns:xlink="http://www.w3.org/1999/xlink" x="0px" y="0px"
	 viewBox="0 0 64 64" style="enable-background:new 0 0 64 64;" xml:space="preserve">
<style type="text/css">
	.st0{fill:#FFFFFF;}
	.st1{fill:#CCCCCC;}
	.st2{fill:#B3B3B3;}
	.st3{fill:#ED7161;}
</style>
<g id="Shape_26_">
	<g>
		<path class="st0" d="M61,2H5C2.8,2,1,3.8,1,6v52c0,2.2,1.8,4,4,4h56c2.2,0,4-1.8,4-4V6C65,3.8,63.2,2,61,2z"/>
	</g>
</g>
<g id="Frame_9_">
	<g>
		<path class="st1" d="M61,56c0,1.1-0.9,2-2,2h-8v4h10c2.2,0,4-1.8,4-4v-8h-4V56z M5,56v-6H1v8c0,2.2,1.8,4,4,4h10v-4H7
			C5.9,58,5,57.1,5,56z M61,2H5C2.8,2,1,3.8,1,6v8h4V8c0-1.1,0.9-2,2-2h8V2h36v4h8c1.1,0,2,0.9,2,2v6h4V6C65,3.8,63.2,2,61,2z"/>
	</g>
</g>
<g id="Focus">
	<g>
		<path class="st2" d="M37,16.5v4.2c4.7,1.6,8,6.1,8,11.3c0,5.2-3.3,9.7-8,11.3v4.2c6.9-1.8,12-8,12-15.5C49,24.5,43.9,18.3,37,16.5
			z M17,32c0,7.5,5.1,13.7,12,15.5v-4.2c-4.7-1.6-8-6.1-8-11.3c0-5.2,3.3-9.7,8-11.3v-4.2C22.1,18.3,17,24.5,17,32z"/>
	</g>
</g>
<g id="Focus_1_">
	<g>
		<circle class="st3" cx="33" cy="32" r="4"/>
	</g>
</g>
</svg>
