<?xml version="1.0" encoding="utf-8"?>
<!-- Generator: Adobe Illustrator 20.0.0, SVG Export Plug-In . SVG Version: 6.00 Build 0)  -->
<svg version="1.1" id="Layer_1" xmlns="http://www.w3.org/2000/svg" xmlns:xlink="http://www.w3.org/1999/xlink" x="0px" y="0px"
	 viewBox="0 0 64 64" style="enable-background:new 0 0 64 64;" xml:space="preserve">
<style type="text/css">
	.st0{fill:#CCCCCC;}
	.st1{fill:#ED7161;}
</style>
<g id="Head_1_">
	<g>
		<path class="st0" d="M60,52c-1.9-1.9-20-10-20-10v-5.9v-1c0.8-1,1.5-2.1,2-3.1c2-4,4-8,4-14c0-0.7,0-1.4,0-2.1c0-0.1,0-0.1,0-0.2
			c0,0.1,0,0.2,0,0.3c0-0.2,0-0.4,0-0.6c0,0,0-0.1,0-0.1c0,0,0-0.1,0-0.1C45.9,7.6,44.3,0,32,0C19.3,0,18,7.8,18,15.3
			c0-0.6,0.1-1.1,0.2-1.6C18.1,14.5,18,15.2,18,16c0,0.1,0,0.3,0,0.4c0,0.5,0,1.1,0,1.6c0,0,0,0,0,0c0,6,2,10,4,14
			c0.5,1.1,1.2,2.1,2,3.1v1V42c0,0-18.1,8.1-20,10c-3.8,3.8-4,12-4,12h24h16h24C64,64,63.8,55.8,60,52z"/>
	</g>
</g>
<g id="Frame_8_">
	<g>
		<path class="st1" d="M10,0H2C0.9,0,0,0.9,0,2v8c0,1.1,0.9,2,2,2s2-0.9,2-2V4h6c1.1,0,2-0.9,2-2S11.1,0,10,0z M62,0h-8
			c-1.1,0-2,0.9-2,2s0.9,2,2,2h6v6c0,1.1,0.9,2,2,2s2-0.9,2-2V2C64,0.9,63.1,0,62,0z M62,28c-1.1,0-2,0.9-2,2v6h-6c-1.1,0-2,0.9-2,2
			c0,1.1,0.9,2,2,2h8c1.1,0,2-0.9,2-2v-8C64,28.9,63.1,28,62,28z M10,36H4v-6c0-1.1-0.9-2-2-2s-2,0.9-2,2v8c0,1.1,0.9,2,2,2h8
			c1.1,0,2-0.9,2-2C12,36.9,11.1,36,10,36z"/>
	</g>
</g>
</svg>
